<?xml version="1.0"?>
<svg xmlns="http://www.w3.org/2000/svg" width="279.7mm" height="82.67mm" viewBox="0 0 792.85 234.35">
  <polygon points="146.26 32.45 299.55 97.07 299.55 221.77 282.73 221.77 282.73 108.36 179.74 64.92 76.75 108.37 76.75 221.77 59.92 221.77 59.92 97.07 157.93 55.75 124.47 41.64 16.94 87.01 0 75.84 179.74 0 359.48 75.83 342.55 87.01 179.74 18.32 146.26 32.45" fill="#fff"/>
  <text transform="translate(417.91 157.83) scale(1.03 0.95)" font-size="99.02" fill="#1d1d1b" font-family="Barlow-SemiBold, Barlow" font-weight="600" letter-spacing="0em">F<tspan x="56.15" y="0" letter-spacing="-0.01em">UT</tspan><tspan x="175.41" y="0" letter-spacing="-0.01em">U</tspan><tspan x="236.99" y="0" letter-spacing="0.01em">R</tspan><tspan x="298.86" y="0" letter-spacing="0.01em">A</tspan></text>
  <text transform="translate(420.12 221.77) scale(1.01 0.95)" font-size="61.87" fill="#1d1d1b" font-family="Barlow-SemiBold, Barlow" font-weight="600" letter-spacing="-0.09em">F<tspan x="29.07" y="0" letter-spacing="-0.03em">A</tspan><tspan x="67.42" y="0" letter-spacing="-0.02em">S</tspan><tspan x="102.55" y="0" letter-spacing="-0.03em">T</tspan><tspan x="136.8" y="0" letter-spacing="-0.03em">I</tspan><tspan x="151.26" y="0" letter-spacing="-0.03em">G</tspan><tspan x="187.26" y="0" letter-spacing="-0.03em">H</tspan><tspan x="224.88" y="0" letter-spacing="-0.01em">E</tspan><tspan x="260.9" y="0" letter-spacing="-0.03em">T</tspan><tspan x="295.16" y="0" letter-spacing="-0.03em">E</tspan><tspan x="329.88" y="0" letter-spacing="-0.01em">R</tspan></text>
</svg>