<?xml version="1.0"?>
<svg xmlns="http://www.w3.org/2000/svg" width="132.27mm" height="140.82mm" viewBox="0 0 374.94 399.17">
  <polygon fill="#000" points="153.97 32.45 307.26 97.07 307.26 221.77 290.45 221.77 290.44 108.36 187.45 64.92 84.46 108.37 84.46 221.77 67.64 221.77 67.64 97.07 165.65 55.75 132.18 41.64 24.66 87.01 7.71 75.84 187.45 0 367.19 75.83 350.26 87.01 187.45 18.32 153.97 32.45"/>
  <text fill="#6c936f" transform="translate(0 322.66) scale(1.03 0.95)" font-size="99.02" font-family="Barlow-SemiBold, Barlow" font-weight="600" letter-spacing="0em">F<tspan x="56.15" y="0" letter-spacing="-0.01em">UT</tspan><tspan x="175.41" y="0" letter-spacing="-0.01em">U</tspan><tspan x="236.99" y="0" letter-spacing="0.01em">R</tspan><tspan x="298.86" y="0" letter-spacing="0.01em">A</tspan></text>
  <text fill="#000" transform="translate(2.2 386.59) scale(1.01 0.95)" font-size="61.87" font-family="Barlow-SemiBold, Barlow" font-weight="600" letter-spacing="-0.09em">F<tspan x="29.07" y="0" letter-spacing="-0.03em">A</tspan><tspan x="67.42" y="0" letter-spacing="-0.02em">S</tspan><tspan x="102.55" y="0" letter-spacing="-0.03em">T</tspan><tspan x="136.8" y="0" letter-spacing="-0.03em">I</tspan><tspan x="151.26" y="0" letter-spacing="-0.03em">G</tspan><tspan x="187.26" y="0" letter-spacing="-0.03em">H</tspan><tspan x="224.88" y="0" letter-spacing="-0.01em">E</tspan><tspan x="260.91" y="0" letter-spacing="-0.03em">T</tspan><tspan x="295.16" y="0" letter-spacing="-0.03em">E</tspan><tspan x="329.88" y="0" letter-spacing="-0.01em">R</tspan></text>
</svg>